<svg width="22" height="26" viewBox="0 0 22 26" fill="none" xmlns="http://www.w3.org/2000/svg">
<path d="M0 4.875C0 3.97617 0.702232 3.25 1.57143 3.25H20.4286C21.2978 3.25 22 3.97617 22 4.875C22 5.77383 21.2978 6.5 20.4286 6.5H1.57143C0.702232 6.5 0 5.77383 0 4.875ZM0 13C0 12.1012 0.702232 11.375 1.57143 11.375H20.4286C21.2978 11.375 22 12.1012 22 13C22 13.8988 21.2978 14.625 20.4286 14.625H1.57143C0.702232 14.625 0 13.8988 0 13ZM22 21.125C22 22.0238 21.2978 22.75 20.4286 22.75H1.57143C0.702232 22.75 0 22.0238 0 21.125C0 20.2262 0.702232 19.5 1.57143 19.5H20.4286C21.2978 19.5 22 20.2262 22 21.125Z" fill="#233567"/>
</svg>
