<svg viewBox="0 0 221 221" fill="none" xmlns="http://www.w3.org/2000/svg"><circle cx="110.976" cy="112" r="27" fill="#ffffff"></circle><path fill-rule="evenodd" clip-rule="evenodd" d="M52.8585 94.4131C60.7202 69.8096 83.7721 52 110.976 52C119.578 52 127.76 53.779 135.178 56.9889C135.045 57.6386 134.976 58.3111 134.976 59C134.976 64.5228 139.453 69 144.976 69C150.499 69 154.976 64.5228 154.976 59C154.976 53.4772 150.499 49 144.976 49C142.32 49 139.905 50.0356 138.115 51.725C129.817 48.0446 120.633 46 110.976 46C81.0867 46 55.7762 65.5695 47.1431 92.5869C46.6388 94.1651 47.5094 95.8534 49.0877 96.3577C50.6659 96.862 52.3542 95.9914 52.8585 94.4131Z" fill="#ffffff"></path><path fill-rule="evenodd" clip-rule="evenodd" d="M170.093 128.088C162.232 152.691 139.18 170.501 111.976 170.501C103.374 170.501 95.1915 168.722 87.7735 165.512C87.9062 164.862 87.9758 164.19 87.9758 163.501C87.9758 157.978 83.4987 153.501 77.9758 153.501C72.453 153.501 67.9758 157.978 67.9758 163.501C67.9758 169.024 72.453 173.501 77.9758 173.501C80.632 173.501 83.0463 172.465 84.837 170.776C93.1349 174.456 102.319 176.501 111.976 176.501C141.865 176.501 167.175 156.931 175.809 129.914C176.313 128.336 175.442 126.647 173.864 126.143C172.286 125.639 170.598 126.509 170.093 128.088Z" fill="#ffffff"></path></svg>